<svg width="453" height="114" viewBox="0 0 453 114" fill="none" xmlns="http://www.w3.org/2000/svg">
<path d="M15.0938 94.8105C13.6862 94.8105 12.3086 94.6309 10.9609 94.2715C9.61328 93.9421 8.32552 93.403 7.09766 92.6543C5.03125 91.3366 3.45898 89.5846 2.38086 87.3984C1.33268 85.2422 0.808594 82.9811 0.808594 80.6152C0.808594 79.5371 0.928385 78.459 1.16797 77.3809C1.4974 75.7936 2.06641 74.2513 2.875 72.7539C3.68359 71.2565 4.7168 70.0137 5.97461 69.0254C7.26237 68.0072 8.78971 67.498 10.5566 67.498H10.8262C11.3652 67.528 11.7845 67.7227 12.084 68.082C12.4134 68.3815 12.5781 68.7559 12.5781 69.2051C12.5781 69.4746 12.4883 69.7591 12.3086 70.0586C11.7695 70.9271 11.5 71.7656 11.5 72.5742C11.5 74.7005 12.7728 76.3327 15.3184 77.4707C16.3366 77.8301 17.3398 78.0098 18.3281 78.0098C20.6042 78.0098 22.5658 77.0215 24.2129 75.0449C25.3509 73.4577 26.2493 71.6908 26.9082 69.7441C27.5671 67.7676 28.181 65.8509 28.75 63.9941C30.1875 59.8014 31.5501 55.5788 32.8379 51.3262C33.8262 47.8223 34.9642 44.3783 36.252 40.9941C36.791 39.5866 37.4499 38.224 38.2285 36.9062C39.0072 35.5885 40.0553 34.5104 41.373 33.6719C42.3913 33.1029 43.4395 32.8184 44.5176 32.8184C45.5059 32.8184 46.4492 33.0879 47.3477 33.627C47.9167 34.0163 48.321 34.4655 48.5605 34.9746C48.8001 35.4538 48.9199 35.9779 48.9199 36.5469C48.9199 37.1758 48.8301 37.8346 48.6504 38.5234C47.9915 41.1289 47.1979 43.6895 46.2695 46.2051C45.431 48.8405 44.6523 51.4759 43.9336 54.1113C46.0599 53.722 48.0065 52.8835 49.7734 51.5957C51.6302 50.1582 53.0228 48.3014 53.9512 46.0254C54.9095 43.7194 55.3887 41.3835 55.3887 39.0176C55.3887 37.3704 55.1641 35.7982 54.7148 34.3008C53.7865 31.5456 52.1992 29.5091 49.9531 28.1914C47.737 26.8737 45.2363 26.1849 42.4512 26.125H41.8223C39.0072 26.125 36.2669 26.679 33.6016 27.7871C30.9362 28.8652 28.6302 30.4525 26.6836 32.5488C24.7669 34.6751 23.5391 37.1608 23 40.0059C22.8802 40.6947 22.8203 41.5033 22.8203 42.4316C22.8203 43.5996 23.015 44.7077 23.4043 45.7559C23.8236 46.804 24.6022 47.403 25.7402 47.5527C26.5788 47.6126 27.1328 48.0319 27.4023 48.8105C27.4922 49.2598 27.5371 49.709 27.5371 50.1582C27.5371 52.2845 26.7285 54.2611 25.1113 56.0879C23.1647 57.9447 20.8288 58.9329 18.1035 59.0527C17.7741 59.0827 17.4596 59.0977 17.1602 59.0977C14.5247 59.0977 12.099 58.3639 9.88281 56.8965C7.69661 55.3991 6.27409 53.2878 5.61523 50.5625C5.37565 49.3945 5.25586 48.2266 5.25586 47.0586C5.25586 44.4531 5.73503 41.8926 6.69336 39.377C7.65169 36.8314 8.90951 34.5404 10.4668 32.5039C12.4733 29.9284 14.8092 27.877 17.4746 26.3496C20.14 24.7923 23.015 23.5495 26.0996 22.6211C28.4954 21.8724 30.9512 21.2734 33.4668 20.8242C36.0124 20.375 38.5579 20.1504 41.1035 20.1504C43.8288 20.1504 46.5241 20.4648 49.1895 21.0938C51.8548 21.7227 54.3854 22.7708 56.7812 24.2383C61.0638 26.8737 63.8639 30.6022 65.1816 35.4238C65.541 36.9512 65.7207 38.4785 65.7207 40.0059C65.7207 44.0488 64.4928 47.8372 62.0371 51.3711C60.3001 53.6771 58.2038 55.5938 55.748 57.1211C59.7012 59.1875 62.5013 62.3021 64.1484 66.4648C64.8971 68.5911 65.2715 70.7923 65.2715 73.0684C65.2715 76.0931 64.6875 79.013 63.5195 81.8281C61.6029 86.3503 58.2936 89.36 53.5918 90.8574C51.6152 91.4564 49.6237 91.7559 47.6172 91.7559C45.7904 91.7559 44.0085 91.5013 42.2715 90.9922C40.5645 90.4831 38.9772 89.6745 37.5098 88.5664C35.8926 87.3385 34.6497 85.901 33.7812 84.2539C31.6549 87.7878 28.6901 90.528 24.8867 92.4746C21.7422 94.0319 18.4779 94.8105 15.0938 94.8105ZM46.1797 77.4258C47.2878 77.4258 48.321 77.2311 49.2793 76.8418C50.7168 76.1829 51.7949 75.1647 52.5137 73.7871C53.2624 72.3796 53.6367 70.9121 53.6367 69.3848C53.6367 68.7559 53.5768 68.127 53.457 67.498C53.0378 65.5215 52.0645 63.8594 50.5371 62.5117C49.6986 61.793 48.7702 61.2988 47.752 61.0293C46.7637 60.7298 45.7454 60.5801 44.6973 60.5801C44.3678 60.5801 44.0384 60.5951 43.709 60.625C43.1699 60.7148 42.6309 60.8047 42.0918 60.8945C41.1035 64.6979 40.0254 68.5013 38.8574 72.3047C38.8874 72.6341 38.9622 72.9785 39.082 73.3379C39.6211 74.6855 40.5645 75.7038 41.9121 76.3926C43.2897 77.0814 44.7122 77.4258 46.1797 77.4258ZM106.105 86.3652C104.458 86.3652 102.811 85.946 101.164 85.1074C99.3971 84.1491 98.1693 82.8913 97.4805 81.334C96.7917 79.7767 96.4473 78.1146 96.4473 76.3477C96.4473 75.1497 96.5521 73.9368 96.7617 72.709C95.474 75.1647 94.0215 77.5156 92.4043 79.7617C90.9967 81.7682 89.3796 83.3704 87.5527 84.5684C85.7559 85.7363 83.6445 86.3203 81.2188 86.3203C79.1823 86.3203 77.2507 85.8262 75.4238 84.8379C73.5671 83.7298 72.1745 82.2474 71.2461 80.3906C70.2878 78.5039 69.8086 76.5423 69.8086 74.5059C69.8086 73.248 69.9434 71.9902 70.2129 70.7324C70.4824 69.4447 70.7969 68.2018 71.1562 67.0039C72.1146 63.7695 73.2826 60.61 74.6602 57.5254C76.0677 54.4108 77.5352 51.3561 79.0625 48.3613C79.4518 47.5827 79.8561 46.819 80.2754 46.0703C80.7546 45.2318 81.4733 44.6478 82.4316 44.3184C83.4199 43.959 84.5729 43.7793 85.8906 43.7793C87.0586 43.7793 88.2116 43.974 89.3496 44.3633C90.4876 44.7526 91.2513 45.4714 91.6406 46.5195C91.7005 46.6693 91.7305 46.834 91.7305 47.0137C91.7305 47.4629 91.5658 47.8522 91.2363 48.1816C90.9069 48.4811 90.6823 48.8255 90.5625 49.2148C89.2747 51.7604 88.2715 54.306 87.5527 56.8516C86.3848 60.1758 85.5013 63.5898 84.9023 67.0938C84.8125 67.5729 84.7676 68.097 84.7676 68.666C84.7676 69.235 84.8424 69.804 84.9922 70.373C85.1419 70.9421 85.4115 71.4212 85.8008 71.8105C86.3099 72.2298 86.8789 72.4395 87.5078 72.4395C87.987 72.4395 88.4661 72.3346 88.9453 72.125C90.6523 71.3464 92.1348 70.1484 93.3926 68.5312C94.6803 66.8841 95.7884 65.2819 96.7168 63.7246C99.1126 59.7715 101.299 55.6836 103.275 51.4609C103.605 50.7122 103.994 49.7839 104.443 48.6758C104.833 47.6875 105.282 46.7741 105.791 45.9355C106.3 45.097 107.079 44.4831 108.127 44.0938C108.965 43.8242 109.879 43.6895 110.867 43.6895C112.035 43.6895 113.158 43.9141 114.236 44.3633C115.314 44.7826 116.078 45.5013 116.527 46.5195C116.587 46.6693 116.617 46.819 116.617 46.9688C116.617 47.3581 116.497 47.6875 116.258 47.957C116.048 48.1966 115.779 48.6159 115.449 49.2148C115.12 49.8138 114.835 50.4577 114.596 51.1465C113.967 52.8835 113.413 54.6354 112.934 56.4023C112.335 58.4089 111.811 60.3555 111.361 62.2422C110.912 64.099 110.673 65.9707 110.643 67.8574C110.643 68.666 110.747 69.4596 110.957 70.2383C111.197 70.987 111.661 71.6009 112.35 72.0801C113.248 72.679 114.206 72.9785 115.225 72.9785C116.632 72.9785 117.965 72.5592 119.223 71.7207C121.289 70.2832 122.966 68.4264 124.254 66.1504C125.572 63.8444 126.665 61.5234 127.533 59.1875C127.833 58.319 128.387 57.8848 129.195 57.8848C129.645 57.8848 130.064 58.0195 130.453 58.2891C130.842 58.5586 131.037 58.9329 131.037 59.4121C131.037 59.6816 130.977 59.9362 130.857 60.1758C129.989 62.5417 128.956 64.8327 127.758 67.0488C125.901 70.7324 123.685 74.1764 121.109 77.3809C119.941 78.8483 118.564 80.2708 116.977 81.6484C115.389 82.9961 113.667 84.1191 111.811 85.0176C109.954 85.916 108.052 86.3652 106.105 86.3652ZM134.945 113.992C131.951 113.992 129.076 113.273 126.32 111.836C124.224 110.638 122.607 109.036 121.469 107.029C120.331 105.023 119.762 102.837 119.762 100.471C119.732 97.6855 120.406 95.1999 121.783 93.0137C122.232 92.3548 122.846 91.651 123.625 90.9023C124.404 90.1536 125.227 89.7793 126.096 89.7793C126.635 89.7793 127.099 89.959 127.488 90.3184C127.878 90.6777 128.072 91.082 128.072 91.5312C128.072 91.8307 127.967 92.1452 127.758 92.4746C127.578 92.804 127.488 93.2233 127.488 93.7324C127.488 95.3496 127.833 96.6523 128.521 97.6406C129.21 98.6289 130.079 99.3477 131.127 99.7969C132.205 100.246 133.343 100.471 134.541 100.471C136.038 100.471 137.446 100.126 138.764 99.4375C140.111 98.7786 141.234 97.8203 142.133 96.5625C143.84 94.0169 145.158 91.2467 146.086 88.252C147.044 85.2871 147.898 82.3372 148.646 79.4023L151.342 69.6094C149.665 73.1732 147.688 76.5573 145.412 79.7617C143.975 81.7682 142.357 83.3704 140.561 84.5684C138.764 85.7363 136.652 86.3203 134.227 86.3203C132.19 86.3203 130.243 85.8262 128.387 84.8379C126.53 83.7298 125.137 82.2474 124.209 80.3906C123.251 78.5039 122.771 76.5423 122.771 74.5059C122.771 73.248 122.906 71.9902 123.176 70.7324C123.445 69.4447 123.76 68.2018 124.119 67.0039C125.107 63.7695 126.29 60.61 127.668 57.5254C129.046 54.4108 130.513 51.3561 132.07 48.3613C132.43 47.5827 132.819 46.819 133.238 46.0703C133.777 45.2318 134.526 44.6478 135.484 44.3184C136.473 43.959 137.611 43.7793 138.898 43.7793C140.066 43.7793 141.204 43.974 142.312 44.3633C143.451 44.7526 144.229 45.4714 144.648 46.5195L144.693 47.0137C144.693 47.6426 144.469 48.0918 144.02 48.3613C143.57 49.1999 143.121 50.0833 142.672 51.0117C141.893 52.9284 141.189 54.875 140.561 56.8516C139.363 60.1758 138.464 63.5898 137.865 67.0938C137.775 67.5729 137.73 68.097 137.73 68.666C137.73 69.235 137.805 69.804 137.955 70.373C138.105 70.9421 138.374 71.4212 138.764 71.8105C139.303 72.2298 139.872 72.4395 140.471 72.4395C140.98 72.4395 141.459 72.3346 141.908 72.125C143.645 71.3464 145.143 70.1484 146.4 68.5312C147.688 66.8841 148.796 65.2819 149.725 63.7246C152.12 59.7715 154.307 55.6836 156.283 51.4609C156.583 50.7422 157.047 49.679 157.676 48.2715C158.484 46.6842 159.622 45.5312 161.09 44.8125C162.557 44.0638 164.1 43.6895 165.717 43.6895C166.436 43.6895 167.169 43.7493 167.918 43.8691C168.697 43.9889 169.34 44.2285 169.85 44.5879C170.389 44.9473 170.658 45.4564 170.658 46.1152C170.658 46.7741 170.344 47.2383 169.715 47.5078C169.086 48.4961 168.622 49.5293 168.322 50.6074C167.604 52.8236 166.99 55.1296 166.48 57.5254C165.971 59.8913 165.432 62.3021 164.863 64.7578C163.036 72.0052 161.045 79.2227 158.889 86.4102C158.02 89.6146 157.032 92.849 155.924 96.1133C154.846 99.4076 153.333 102.432 151.387 105.188C149.32 107.943 146.91 110.099 144.154 111.656C141.399 113.214 138.329 113.992 134.945 113.992ZM262.838 95.4395C261.011 95.4395 259.244 95.0202 257.537 94.1816C255.92 93.3431 254.662 92.2201 253.764 90.8125C252.895 89.4049 252.296 87.8477 251.967 86.1406C251.637 84.4336 251.473 82.7266 251.473 81.0195L251.518 79.9863C251.817 73.248 252.551 66.5397 253.719 59.8613C254.767 52.8535 256.1 45.8906 257.717 38.9727L257.986 37.8945C253.614 44.6328 250.08 51.7454 247.385 59.2324C245.738 63.5749 244.345 67.9922 243.207 72.4844C242.788 74.1914 242.413 75.9284 242.084 77.6953C241.785 79.4323 241.635 81.1693 241.635 82.9062V83.0859C241.635 83.1758 241.635 83.2357 241.635 83.2656C241.814 83.5352 241.904 83.8197 241.904 84.1191C241.904 84.2389 241.874 84.3887 241.814 84.5684C241.395 85.5866 240.721 86.4102 239.793 87.0391C238.895 87.668 237.921 88.1322 236.873 88.4316C236.035 88.6712 235.196 88.791 234.357 88.791C232.471 88.791 230.719 88.1771 229.102 86.9492C227.245 85.332 225.987 83.3255 225.328 80.9297C224.669 78.5039 224.235 76.1081 224.025 73.7422C223.396 68.082 223.037 62.4069 222.947 56.7168C222.857 53.752 222.812 50.7871 222.812 47.8223C222.812 46.0853 222.827 44.3633 222.857 42.6562C221.42 49.3346 219.923 55.998 218.365 62.6465C217.646 65.8509 216.808 69.1003 215.85 72.3945C214.921 75.6589 213.663 78.7435 212.076 81.6484C210.04 85.2422 207.329 88.2669 203.945 90.7227C200.591 93.1784 196.818 94.571 192.625 94.9004C192.206 94.9303 191.801 94.9453 191.412 94.9453C189.286 94.9453 187.174 94.6009 185.078 93.9121C183.012 93.2233 181.14 92.2051 179.463 90.8574C176.079 87.8626 174.147 84.1341 173.668 79.6719C173.608 79.1328 173.578 78.5938 173.578 78.0547C173.578 76.0182 173.982 74.0267 174.791 72.0801C175.6 70.1335 176.827 68.5013 178.475 67.1836C179.463 66.4049 180.541 65.7611 181.709 65.252C182.907 64.7129 184.135 64.4434 185.393 64.4434H185.482C186.411 64.4434 187.309 64.668 188.178 65.1172C189.046 65.5664 189.48 66.2253 189.48 67.0938C189.48 67.3633 189.421 67.6478 189.301 67.9473C189.271 68.097 189.196 68.2467 189.076 68.3965C188.537 69.235 188.268 70.1335 188.268 71.0918C188.268 72.11 188.537 73.0684 189.076 73.9668C189.675 74.8952 190.469 75.584 191.457 76.0332C192.475 76.4824 193.523 76.707 194.602 76.707C194.841 76.707 195.081 76.6921 195.32 76.6621C197.866 76.3027 199.812 75.015 201.16 72.7988C202.688 70.4928 203.96 68.0371 204.979 65.4316C206.027 62.7962 206.955 60.1758 207.764 57.5703C209.62 51.6406 211.268 45.666 212.705 39.6465C213.544 36.0827 214.592 32.6087 215.85 29.2246C214.472 29.2845 213.079 29.3294 211.672 29.3594C208.887 29.2995 205.997 29.4342 203.002 29.7637C200.037 30.0632 197.447 31.1712 195.23 33.0879C193.523 34.8848 192.67 36.8613 192.67 39.0176C192.67 40.1556 192.924 41.2487 193.434 42.2969C193.973 43.3151 194.796 44.1686 195.904 44.8574C196.473 45.127 197.012 45.3965 197.521 45.666C198.031 45.9355 198.33 46.4297 198.42 47.1484V47.373C198.42 47.7025 198.39 48.0319 198.33 48.3613C198.12 50.4577 197.432 52.3594 196.264 54.0664C195.126 55.5638 193.718 56.6569 192.041 57.3457C190.364 58.0046 188.612 58.334 186.785 58.334C184.928 58.334 183.132 58.0345 181.395 57.4355C178.37 56.3874 176.184 54.6204 174.836 52.1348C173.518 49.6191 172.859 46.9089 172.859 44.0039C172.859 40.7995 173.548 37.7448 174.926 34.8398C177.172 30.3177 180.646 27.1432 185.348 25.3164C187.743 24.4479 190.229 23.8939 192.805 23.6543C195.41 23.3848 197.986 23.25 200.531 23.25C201.43 23.25 202.313 23.25 203.182 23.25C205.697 23.3099 208.213 23.4447 210.729 23.6543C213.244 23.8639 215.76 23.9987 218.275 24.0586C218.994 22.8307 219.818 21.6777 220.746 20.5996C221.704 19.5215 222.783 18.653 223.98 17.9941C225.208 17.3053 226.571 16.9609 228.068 16.9609H228.113C228.622 16.9609 229.191 17.0059 229.82 17.0957C230.479 17.1855 231.048 17.3802 231.527 17.6797C232.336 18.069 232.965 18.6829 233.414 19.5215C233.863 20.36 234.088 21.2285 234.088 22.127C234.088 22.5163 234.043 22.9056 233.953 23.2949C233.354 25.002 232.186 26.1999 230.449 26.8887H230.359C230.359 27.0085 230.359 27.1133 230.359 27.2031C230.329 27.9518 230.314 28.6855 230.314 29.4043C230.314 31.291 230.359 33.1927 230.449 35.1094C230.898 44.3932 232.021 53.6172 233.818 62.7812C234.417 66.1055 235.196 69.3848 236.154 72.6191C236.693 70.1035 237.352 67.6178 238.131 65.1621C240.048 59.0527 242.458 53.138 245.363 47.418C247.939 42.2669 250.964 37.3704 254.438 32.7285C255.995 30.5423 257.762 28.446 259.738 26.4395C261.745 24.4329 264.081 23.0404 266.746 22.2617C267.255 22.112 267.794 22.0371 268.363 22.0371C268.603 22.0371 268.842 22.0671 269.082 22.127C269.591 22.0371 270.115 21.9922 270.654 21.9922C271.433 21.9922 272.212 22.112 272.99 22.3516C273.649 22.5911 274.278 22.9505 274.877 23.4297C275.476 23.9089 275.88 24.5078 276.09 25.2266C276.15 25.4062 276.18 25.5859 276.18 25.7656C276.18 26.3047 275.97 26.7988 275.551 27.248C275.371 27.4277 275.281 27.5176 275.281 27.5176L275.371 27.4277L275.191 27.5625L274.877 27.9219C274.817 27.9818 274.757 28.0417 274.697 28.1016C274.607 28.2513 274.503 28.401 274.383 28.5508C274.173 28.9102 273.964 29.2845 273.754 29.6738C272.676 31.6803 271.792 33.8516 271.104 36.1875C270.445 38.4935 269.876 40.7995 269.396 43.1055C268.019 49.1849 267.09 55.3392 266.611 61.5684C266.342 64.4733 266.207 67.4082 266.207 70.373C266.207 73.3079 266.402 76.2129 266.791 79.0879C267.12 81.3639 267.674 83.4453 268.453 85.332C268.633 85.7513 268.842 86.1706 269.082 86.5898C269.202 86.7695 269.307 86.9342 269.396 87.084C269.546 87.2936 269.621 87.3984 269.621 87.3984C270.1 88.0273 270.594 88.4616 271.104 88.7012C271.673 89.1204 271.957 89.6296 271.957 90.2285C271.957 90.528 271.882 90.8125 271.732 91.082C270.714 92.5195 269.411 93.5977 267.824 94.3164C266.237 95.0651 264.575 95.4395 262.838 95.4395ZM291.094 86.3203C287.829 86.3203 284.805 85.4368 282.02 83.6699C279.264 81.873 277.363 79.2975 276.314 75.9434C275.805 74.0566 275.551 72.11 275.551 70.1035C275.551 67.0488 276.06 63.9792 277.078 60.8945C278.066 57.8099 279.444 54.9948 281.211 52.4492C282.978 49.9036 285.059 47.8522 287.455 46.2949C289.851 44.7376 292.441 43.959 295.227 43.959C297.503 43.959 299.674 44.5879 301.74 45.8457C303.807 47.1035 305.139 49.0052 305.738 51.5508C305.888 52.2695 305.963 52.9883 305.963 53.707C305.963 55.5638 305.559 57.3607 304.75 59.0977C303.971 60.8047 302.953 62.362 301.695 63.7695C300.378 65.2969 298.73 66.6445 296.754 67.8125C294.777 68.9805 292.756 69.5645 290.689 69.5645C290.061 69.5645 289.447 69.4896 288.848 69.3398C289.986 70.8372 291.468 72.0052 293.295 72.8438C295.152 73.6523 297.023 74.0566 298.91 74.0566C300.737 74.0566 302.384 73.6823 303.852 72.9336C305.349 72.1549 306.697 71.1667 307.895 69.9688C309.122 68.7409 310.245 67.3932 311.264 65.9258C312.731 63.8294 313.899 61.5684 314.768 59.1426C314.917 58.7533 315.142 58.4688 315.441 58.2891C315.771 58.0794 316.1 57.9746 316.43 57.9746C316.879 57.9746 317.283 58.1094 317.643 58.3789C318.002 58.6484 318.182 59.0078 318.182 59.457C318.182 59.6367 318.152 59.8464 318.092 60.0859C316.115 65.6862 313.345 70.8073 309.781 75.4492C306.217 80.0612 301.905 83.3555 296.844 85.332C294.957 85.9909 293.04 86.3203 291.094 86.3203ZM287.32 63.3652C290.615 63.0957 293.385 61.7031 295.631 59.1875C296.469 58.2292 297.203 57.151 297.832 55.9531C298.461 54.7253 298.775 53.4824 298.775 52.2246C298.656 50.7272 297.772 49.9785 296.125 49.9785C295.406 49.9785 294.702 50.1432 294.014 50.4727C293.325 50.7721 292.726 51.1465 292.217 51.5957C290.54 52.9733 289.312 54.7253 288.533 56.8516C287.755 58.9779 287.35 61.1491 287.32 63.3652Z" fill="#414141"/>
<g clip-path="url(#clip0_68_27)">
<path d="M349.584 110.952C348.248 106.84 349.079 103.52 349.507 100.258C350.804 91.0678 352.003 81.8585 353.69 72.7466C355.415 63.4141 355.707 53.939 357.01 44.5806C357.289 42.5571 357.607 40.5402 357.925 38.5232C358.625 34.0548 360.875 31.0521 365.629 30.4165C366.179 30.3324 366.723 30.2133 367.257 30.0598C367.413 30.0209 367.529 29.8393 367.996 29.4113C367.996 28.1142 368.126 26.4474 367.996 24.8715C366.972 13.7815 372.582 5.23376 383.231 1.9781C386.402 1.01178 389.534 -0.123166 393.004 0.0324828C405.145 0.486459 416.17 9.76055 417.532 22.4524C417.629 23.3734 417.778 24.2813 417.947 25.4941C420.173 26.2354 422.532 26.4962 424.867 26.2594C426.637 26.0453 427.707 26.8301 428.239 28.4384C428.648 29.6707 429.296 30.9159 429.316 32.1611C429.368 36.156 430.924 39.7489 431.91 43.4975C434.193 52.0971 436.274 60.7486 438.564 69.3482C440.395 76.1607 441.732 83.0964 442.565 90.1014C443.19 95.035 443.262 100.023 442.779 104.972C441.196 106.653 439.121 107.789 436.852 108.215C426.884 110.472 416.864 112.379 406.61 112.755C401.785 112.93 396.967 113.274 392.148 113.442C384.917 113.695 377.686 114.091 370.454 114.013C363.431 113.922 356.498 112.645 349.584 110.952ZM437.28 102.806C437.964 95.5607 437.427 88.2516 435.691 81.184C432.902 69.4585 430.159 57.7199 427.169 46.0462C425.989 41.4222 424.192 36.9667 422.701 32.5048C421.339 32.1382 419.955 31.863 418.556 31.6811C416.52 31.5709 414.471 31.6228 412.434 31.6811C406.87 31.9016 401.305 32.174 395.747 32.4334C394.262 32.4983 392.771 32.5242 391.292 32.6604C384.644 33.309 377.997 33.9575 371.349 34.5671C368.343 34.7617 365.399 35.5115 362.665 36.7786C361.486 43.3605 360.726 50.0106 360.389 56.6888C360.233 59.6331 360.272 62.6099 359.883 65.5218C359.092 71.4041 358.048 77.2474 357.159 83.1167C356.135 89.9004 355.142 96.6906 354.183 103.487C354.178 104.107 354.246 104.725 354.384 105.329C355.148 105.773 355.959 106.129 356.803 106.393C359.708 106.976 362.639 107.735 365.564 107.878C372.763 108.241 379.981 108.442 387.193 108.429C391.629 108.429 396.078 107.956 400.514 107.605C406.999 107.1 413.485 106.73 419.912 105.9C425.6 105.199 431.222 103.922 437.28 102.806ZM412.94 25.7276C412.447 23.4577 412.194 21.8363 411.727 20.2409C407.836 6.9005 398.186 1.95216 385.137 6.62163C383.209 7.27031 381.387 8.199 379.728 9.37791C377.037 11.3754 374.709 13.8269 373.892 17.2317C372.854 21.1683 372.205 25.1374 373.827 29.2297C374.647 29.2908 375.471 29.2908 376.291 29.2297C376.806 29.0796 377.299 28.8615 377.757 28.5811C377.816 27.4599 377.816 26.3364 377.757 25.2152C377.435 21.863 378.297 18.504 380.192 15.7204C382.087 12.9368 384.897 10.904 388.133 9.97457C394.372 8.07435 401.182 10.5193 404.263 16.2135C406.001 19.4562 407.447 22.8026 409.107 26.2788L412.94 25.7276ZM402.486 26.9468C402.506 23.4049 401.395 19.9492 399.314 17.0825C398.475 15.8418 397.291 14.8737 395.908 14.2976C394.525 13.7214 393.004 13.5623 391.532 13.8399C388.049 14.3846 385.656 16.8296 383.892 19.8129C383.083 21.0809 382.587 22.5232 382.445 24.0206C382.303 25.5181 382.519 27.0279 383.075 28.4255L402.486 26.9468Z" fill="#AC6F9C"/>
</g>
<defs>
<clipPath id="clip0_68_27">
<rect width="114" height="114" fill="white" transform="translate(339)"/>
</clipPath>
</defs>
</svg>
