<svg width="320" height="320" viewBox="0 0 320 320" fill="none" xmlns="http://www.w3.org/2000/svg">
<g clip-path="url(#clip0_68_53)">
<rect width="320" height="320" fill="white"/>
<path d="M30.0434 311.393C26.2932 299.852 28.6234 290.531 29.8249 281.374C33.4658 255.578 36.8337 229.728 41.5668 204.15C46.4093 177.954 47.2285 151.357 50.8876 125.088C51.6704 119.408 52.5624 113.746 53.4544 108.085C55.4205 95.5417 61.7375 87.113 75.0815 85.3289C76.6244 85.093 78.1506 84.7585 79.6508 84.3277C80.0877 84.2184 80.4154 83.7087 81.7261 82.5072C81.7261 78.8663 82.0902 74.1877 81.7261 69.764C78.8498 38.6342 94.5968 14.6405 124.489 5.50184C133.391 2.78936 142.184 -0.396443 151.923 0.040467C186.002 1.31479 216.95 27.3473 220.773 62.9737C221.046 65.5587 221.464 68.1074 221.938 71.5116C228.188 73.5924 234.808 74.3246 241.362 73.6598C246.332 73.059 249.336 75.2618 250.828 79.7765C251.975 83.2354 253.796 86.7307 253.85 90.2259C253.996 101.44 258.365 111.525 261.132 122.048C267.54 146.187 273.384 170.472 279.81 194.611C284.951 213.734 288.705 233.202 291.042 252.866C292.796 266.714 292.997 280.715 291.643 294.609C287.2 299.327 281.374 302.514 275.004 303.711C247.024 310.046 218.898 315.398 190.116 316.454C176.572 316.946 163.046 317.911 149.52 318.384C129.222 319.094 108.924 320.204 88.6257 319.986C68.9101 319.731 49.4494 316.145 30.0434 311.393ZM276.206 288.528C278.128 268.19 276.62 247.673 271.745 227.834C263.918 194.92 256.217 161.97 247.825 129.202C244.511 116.222 239.469 103.716 235.282 91.1908C231.46 90.1617 227.574 89.3894 223.649 88.8788C217.933 88.5693 212.18 88.715 206.464 88.8788C190.844 89.4977 175.225 90.2623 159.624 90.9905C155.455 91.1726 151.268 91.2454 147.117 91.6277C128.457 93.4481 109.798 95.2686 91.1379 96.9798C82.699 97.526 74.4342 99.6307 66.762 103.188C63.452 121.663 61.3178 140.33 60.3722 159.076C59.9353 167.341 60.0445 175.696 58.9522 183.87C56.7313 200.382 53.8003 216.784 51.3063 233.259C48.43 252.301 45.6447 271.361 42.9504 290.44C42.9382 292.179 43.1276 293.914 43.5147 295.61C45.6599 296.855 47.9375 297.856 50.305 298.596C58.4607 300.234 66.6892 302.364 74.8994 302.764C95.1065 303.784 115.368 304.348 135.612 304.312C148.064 304.312 160.552 302.983 173.004 302C191.208 300.58 209.413 299.542 227.454 297.212C243.419 295.246 259.203 291.66 276.206 288.528ZM207.884 72.167C206.5 65.7954 205.79 61.2442 204.48 56.7659C193.557 19.3191 166.468 5.42902 129.841 18.5363C124.428 20.3572 119.312 22.964 114.658 26.2733C107.103 31.8803 100.568 38.7616 98.2741 48.319C95.3614 59.3692 93.5409 70.5104 98.0921 81.9975C100.395 82.1691 102.707 82.1691 105.01 81.9975C106.456 81.5762 107.84 80.964 109.124 80.177C109.289 77.0298 109.289 73.8761 109.124 70.7288C108.221 61.3192 110.64 51.8904 115.959 44.0767C121.279 36.263 129.166 30.5571 138.251 27.9481C155.764 22.6141 174.879 29.4773 183.526 45.4609C188.405 54.5632 192.465 63.9567 197.125 73.7144L207.884 72.167ZM178.538 75.5895C178.594 65.6474 175.475 55.9469 169.636 47.9003C167.28 44.4175 163.956 41.7001 160.074 40.0828C156.193 38.4655 151.923 38.0189 147.791 38.798C138.015 40.3272 131.297 47.1903 126.346 55.5644C124.074 59.1238 122.682 63.1722 122.283 67.3756C121.884 71.5791 122.49 75.8171 124.052 79.7401L178.538 75.5895Z" fill="#AC6F9C"/>
<path d="M207.884 72.167L197.107 73.587C192.446 63.8293 188.387 54.363 183.508 45.3335C174.861 29.3499 155.746 22.4868 138.233 27.8207C129.147 30.4297 121.261 36.1356 115.941 43.9493C110.621 51.763 108.203 61.1918 109.106 70.6014C109.27 73.7487 109.27 76.9024 109.106 80.0496C107.821 80.8366 106.438 81.4488 104.991 81.8701C102.689 82.0417 100.376 82.0417 98.0738 81.8701C93.5226 70.383 95.3795 59.2418 98.0738 48.1916C100.459 38.6342 106.994 31.8075 114.458 26.1459C119.112 22.8366 124.228 20.2298 129.64 18.4089C166.305 5.30164 193.356 19.1917 204.279 56.6385C205.79 61.1897 206.5 65.7954 207.884 72.167Z" fill="white"/>
</g>
<defs>
<clipPath id="clip0_68_53">
<rect width="320" height="320" fill="white"/>
</clipPath>
</defs>
</svg>
